<svg width="24" height="24" viewBox="0 0 24 24" fill="none" xmlns="http://www.w3.org/2000/svg">
<path d="M20 20L15.9501 15.9501M15.9501 15.9501C16.6001 15.3001 17.1158 14.5284 17.4675 13.6791C17.8193 12.8298 18.0004 11.9195 18.0004 11.0002C18.0004 10.0809 17.8193 9.17064 17.4675 8.32134C17.1158 7.47204 16.6001 6.70034 15.9501 6.05031C15.3001 5.40028 14.5284 4.88465 13.6791 4.53286C12.8298 4.18107 11.9195 4 11.0002 4C10.0809 4 9.17064 4.18107 8.32134 4.53286C7.47204 4.88465 6.70034 5.40028 6.05031 6.05031C4.73752 7.3631 4 9.14363 4 11.0002C4 12.8568 4.73752 14.6373 6.05031 15.9501C7.3631 17.2629 9.14363 18.0004 11.0002 18.0004C12.8568 18.0004 14.6373 17.2629 15.9501 15.9501Z" stroke="white" stroke-width="1.5" stroke-linecap="round" stroke-linejoin="round"/>
</svg>
